<?xml version="1.0" encoding="UTF-8" standalone="no"?>
<svg
   height="24"
   width="24"
   version="1.1"
   id="svg4"
   sodipodi:docname="desktop.svg"
   inkscape:version="1.1 (c68e22c387, 2021-05-23)"
   xmlns:inkscape="http://www.inkscape.org/namespaces/inkscape"
   xmlns:sodipodi="http://sodipodi.sourceforge.net/DTD/sodipodi-0.dtd"
   xmlns="http://www.w3.org/2000/svg"
   xmlns:svg="http://www.w3.org/2000/svg">
  <defs
     id="defs8" />
  <sodipodi:namedview
     id="namedview6"
     pagecolor="#ffffff"
     bordercolor="#666666"
     borderopacity="1.0"
     inkscape:pageshadow="2"
     inkscape:pageopacity="0.0"
     inkscape:pagecheckerboard="0"
     showgrid="false"
     inkscape:zoom="32.916667"
     inkscape:cx="12.01519"
     inkscape:cy="12.01519"
     inkscape:window-width="1920"
     inkscape:window-height="991"
     inkscape:window-x="-9"
     inkscape:window-y="-9"
     inkscape:window-maximized="1"
     inkscape:current-layer="svg4" />
  <path
     d="m 8.0140096,21.232278 v -1.65 h 2.0288424 v -2.05 H 4.2284853 q -0.9649376,0 -1.6082293,-0.65 -0.6432917,-0.65 -0.6432917,-1.625 V 5.3072785 q 0,-0.975 0.6432917,-1.625 0.6432917,-0.65 1.6082293,-0.65 H 19.123162 q 0.964938,0 1.608229,0.65 0.643292,0.65 0.643292,1.625 v 9.9499995 q 0,0.975 -0.643292,1.625 -0.643291,0.65 -1.608229,0.65 h -5.814367 v 2.05 h 2.028843 v 1.65 z m -3.7855243,-5.35 H 19.123162 q 0.24742,0 0.43348,-0.188 0.18507,-0.187 0.18507,-0.437 V 5.3072785 q 0,-0.25 -0.18507,-0.437 -0.18606,-0.188 -0.43348,-0.188 H 4.2284853 q -0.2474199,0 -0.43249,0.188 -0.1860597,0.187 -0.1860597,0.437 v 9.9499995 q 0,0.25 0.1860597,0.437 0.1850701,0.188 0.43249,0.188 z m -0.6185497,0 V 4.6822785 Z"
     id="path2"
     style="fill:#f0f8ff;fill-opacity:1;stroke-width:0.994826" />
</svg>
