<?xml version="1.0" encoding="UTF-8" standalone="no"?>
<svg
   height="24"
   width="24"
   version="1.1"
   id="svg4"
   sodipodi:docname="mobile2.svg"
   inkscape:version="1.1 (c68e22c387, 2021-05-23)"
   xmlns:inkscape="http://www.inkscape.org/namespaces/inkscape"
   xmlns:sodipodi="http://sodipodi.sourceforge.net/DTD/sodipodi-0.dtd"
   xmlns="http://www.w3.org/2000/svg"
   xmlns:svg="http://www.w3.org/2000/svg">
  <defs
     id="defs8" />
  <sodipodi:namedview
     id="namedview6"
     pagecolor="#ffffff"
     bordercolor="#666666"
     borderopacity="1.0"
     inkscape:pageshadow="2"
     inkscape:pageopacity="0.0"
     inkscape:pagecheckerboard="0"
     showgrid="false"
     inkscape:zoom="32.916667"
     inkscape:cx="12.01519"
     inkscape:cy="12.01519"
     inkscape:window-width="1920"
     inkscape:window-height="991"
     inkscape:window-x="-9"
     inkscape:window-y="-9"
     inkscape:window-maximized="1"
     inkscape:current-layer="svg4" />
  <path
     d="M7.525 22.85q-.975 0-1.625-.65t-.65-1.625V3.425q0-.975.65-1.625t1.625-.65h8.95q.975 0 1.625.65t.65 1.625v17.15q0 .975-.65 1.625t-1.625.65ZM6.9 18.3h10.2V5.7H6.9Zm0 1.65v.625q0 .25.188.437.187.188.437.188h8.95q.25 0 .438-.188.187-.187.187-.437v-.625Zm0-15.9h10.2v-.625q0-.25-.187-.438-.188-.187-.438-.187h-8.95q-.25 0-.437.187-.188.188-.188.438Zm0-1.25v1.25V2.8Zm0 18.4v-1.25 1.25Z"
     id="path2"
     style="fill:#f0f8ff;fill-opacity:1" />
</svg>
