<?xml version="1.0" encoding="UTF-8" standalone="no"?>
<svg
   height="48"
   width="48"
   version="1.1"
   id="svg4"
   sodipodi:docname="mobile.svg"
   inkscape:version="1.1 (c68e22c387, 2021-05-23)"
   xmlns:inkscape="http://www.inkscape.org/namespaces/inkscape"
   xmlns:sodipodi="http://sodipodi.sourceforge.net/DTD/sodipodi-0.dtd"
   xmlns="http://www.w3.org/2000/svg"
   xmlns:svg="http://www.w3.org/2000/svg">
  <defs
     id="defs8" />
  <sodipodi:namedview
     id="namedview6"
     pagecolor="#ffffff"
     bordercolor="#666666"
     borderopacity="1.0"
     inkscape:pageshadow="2"
     inkscape:pageopacity="0.0"
     inkscape:pagecheckerboard="0"
     showgrid="false"
     inkscape:zoom="16.458333"
     inkscape:cx="24.03038"
     inkscape:cy="24.03038"
     inkscape:window-width="1920"
     inkscape:window-height="991"
     inkscape:window-x="-9"
     inkscape:window-y="-9"
     inkscape:window-maximized="1"
     inkscape:current-layer="svg4" />
  <path
     d="M13.05 46.85q-1.5 0-2.675-1.15Q9.2 44.55 9.2 43V5q0-1.55 1.175-2.7 1.175-1.15 2.675-1.15h21.9q1.5 0 2.675 1.15Q38.8 3.45 38.8 5v38q0 1.55-1.175 2.7-1.175 1.15-2.675 1.15Zm0-8.6h21.9V9.75h-21.9Zm0 3.45V43h21.9v-1.3Zm0-35.4h21.9V5h-21.9Zm0-1.3v1.3V5Zm0 38v-1.3V43Z"
     id="path2"
     style="fill:#f0f8ff;fill-opacity:1" />
</svg>
